<svg width="200" height="200" viewBox="0 0 200 200" fill="none" xmlns="http://www.w3.org/2000/svg">
<g clip-path="url(#clip0_2007_502)">
<path fill-rule="evenodd" clip-rule="evenodd" d="M66.6992 60.8398C72.6199 60.8033 75.4519 63.733 75.1953 69.6289C73.9828 73.7689 71.2158 75.6894 66.8945 75.3906C62.4658 74.1865 60.4803 71.2894 60.9375 66.6992C61.7217 63.6039 63.6422 61.6508 66.6992 60.8398Z" fill="#1C1C1C"/>
<path fill-rule="evenodd" clip-rule="evenodd" d="M55.5664 90.7226C51.9071 90.4627 48.2287 90.4627 44.5313 90.7226C44.5299 102.913 44.3996 115.088 44.1407 127.246C43.9942 127.368 43.8313 127.466 43.6524 127.539C39.9588 127.63 36.3131 127.662 32.7149 127.637C32.5196 127.572 32.3893 127.441 32.3243 127.246C32.4303 127.234 32.4953 127.169 32.5196 127.051C32.3575 114.949 32.2598 102.84 32.2266 90.7226C29.7813 90.6193 27.3399 90.4566 24.9024 90.2344C24.6764 87.2867 24.6438 84.3244 24.8047 81.3476C24.9024 81.25 25 81.1523 25.0977 81.0547C27.4237 81.0199 29.7348 80.9223 32.0313 80.7617C32.2356 78.814 32.3659 76.8609 32.4219 74.9023C32.5112 74.2586 32.6741 73.64 32.9102 73.0469C32.7942 72.9562 32.6639 72.9236 32.5196 72.9492C33.8112 68.3039 36.6758 65.0162 41.1133 63.0859C42.9496 62.4152 44.8375 61.9596 46.7774 61.7187C49.8373 61.5885 52.8971 61.5885 55.9571 61.7187C56.086 63.3316 56.151 64.9592 56.1524 66.6016C56.1797 68.3457 56.0821 70.0709 55.8594 71.7773C55.7618 71.875 55.6641 71.9726 55.5664 72.0703C53.4098 72.0994 51.2614 72.2297 49.1211 72.4609C47.1133 72.776 45.8438 73.9154 45.3125 75.8789C44.9041 77.4144 44.7414 78.9769 44.8243 80.5664C48.4883 80.4738 52.1342 80.5715 55.7618 80.8594C55.884 81.0058 55.9817 81.1687 56.0547 81.3476C56.185 84.3424 56.185 87.3373 56.0547 90.332C55.9164 90.5041 55.7536 90.6342 55.5664 90.7226Z" fill="#1C1C1C"/>
<path fill-rule="evenodd" clip-rule="evenodd" d="M151.27 61.4258C154.916 61.3932 158.562 61.4258 162.207 61.5235C163.206 61.8617 163.564 62.5453 163.281 63.5742C158.941 67.3223 154.546 71.0008 150.098 74.6094C148.816 74.8299 147.513 74.9276 146.191 74.9024C144.809 74.9239 143.442 74.8262 142.09 74.6094C141.818 74.4227 141.687 74.1623 141.699 73.8282C141.912 73.2401 142.205 72.6867 142.578 72.168C145.148 68.8518 147.622 65.4664 150 62.0117C150.423 61.7713 150.846 61.576 151.27 61.4258Z" fill="#1C1C1C"/>
<path fill-rule="evenodd" clip-rule="evenodd" d="M146.973 79.0039C157.268 78.4389 165.243 82.4101 170.898 90.918C174.399 97.1912 175.31 103.832 173.633 110.84C170.897 120.726 164.484 126.683 154.395 128.711C143.88 130.139 135.449 126.656 129.102 118.262C124.464 110.714 123.683 102.772 126.758 94.4336C130.691 85.5853 137.43 80.4422 146.973 79.0039Z" fill="#1C1C1C"/>
<path fill-rule="evenodd" clip-rule="evenodd" d="M121.192 93.0664C120.931 104.46 120.931 115.853 121.192 127.246C120.948 127.566 120.622 127.794 120.215 127.93C117.22 128.06 114.225 128.06 111.231 127.93C110.623 127.808 110.265 127.45 110.156 126.855C110.021 125.29 109.858 123.727 109.668 122.168C105.84 127.059 100.794 129.338 94.5313 129.004C90.3161 129.204 86.5726 128 83.3009 125.391C80.7354 122.546 79.4983 119.193 79.5899 115.332C79.611 107.661 83.3872 103.071 90.9181 101.562C95.9751 100.589 101.053 99.7426 106.152 99.0234C107.262 98.918 108.272 98.5597 109.18 97.9492C109.659 92.9605 107.413 90.1937 102.442 89.6484C98.9452 89.1459 95.9829 90.1549 93.5548 92.6758C92.9993 93.8254 92.446 94.9646 91.8946 96.0937C88.444 96.224 84.9937 96.224 81.5431 96.0937C80.9612 91.7207 82.2634 87.9447 85.4493 84.7656C90.8841 80.4924 97.069 78.6695 104.004 79.2969C109.733 79.5974 114.518 81.8435 118.359 86.0351C119.933 88.1172 120.877 90.4609 121.192 93.0664Z" fill="#1C1C1C"/>
<path fill-rule="evenodd" clip-rule="evenodd" d="M62.2071 80.957C62.2092 81.4455 62.3395 81.4781 62.5977 81.0547C66.2436 80.9244 69.8893 80.9244 73.5352 81.0547C73.7631 81.1523 73.9258 81.315 74.0235 81.543C74.1196 96.8252 74.152 112.06 74.1211 127.246C73.8331 127.619 73.4424 127.847 72.9493 127.93C69.629 128.06 66.3086 128.06 62.9883 127.93C62.4547 127.852 62.0967 127.559 61.9141 127.051C61.7838 111.816 61.7838 96.582 61.9141 81.3476C61.9684 81.1687 62.0661 81.0387 62.2071 80.957Z" fill="#1C1C1C"/>
<path fill-rule="evenodd" clip-rule="evenodd" d="M74.1211 127.246C74.152 112.06 74.1195 96.8252 74.0234 81.543C73.9258 81.315 73.7631 81.1523 73.5352 81.0547C69.8893 80.9244 66.2436 80.9244 62.5977 81.0547C62.3395 81.4781 62.2092 81.4455 62.207 80.957C62.2887 80.816 62.4187 80.7183 62.5977 80.6641C66.1783 80.5338 69.7592 80.5338 73.3398 80.6641C73.8734 80.7418 74.2314 81.0348 74.4141 81.543C74.5443 96.582 74.5443 111.621 74.4141 126.66C74.3139 126.861 74.2162 127.056 74.1211 127.246Z" fill="#1C1C1C"/>
<path fill-rule="evenodd" clip-rule="evenodd" d="M55.5664 90.7227C51.9857 90.7227 48.4049 90.7227 44.8242 90.7227C44.8568 102.702 44.8242 114.681 44.7266 126.66C44.5639 127.344 44.1406 127.767 43.457 127.93C40.0717 128.06 36.6861 128.06 33.3008 127.93C33.1002 127.83 32.9049 127.732 32.7148 127.637C36.3131 127.662 39.9588 127.63 43.6523 127.539C43.8313 127.466 43.9941 127.368 44.1406 127.246C44.3996 115.088 44.5299 102.913 44.5312 90.7227C48.2287 90.4627 51.907 90.4627 55.5664 90.7227Z" fill="#1C1C1C"/>
<path fill-rule="evenodd" clip-rule="evenodd" d="M148.34 90.332C156.476 90.4271 161.001 94.5287 161.914 102.637C162.257 106.505 161.411 110.086 159.375 113.379C155.964 117.446 151.635 118.911 146.387 117.773C141.386 116.157 138.489 112.739 137.695 107.52C136.843 102.93 137.689 98.6984 140.234 94.8242C142.371 92.2756 145.072 90.7783 148.34 90.332Z" fill="white"/>
<path fill-rule="evenodd" clip-rule="evenodd" d="M32.5196 72.9492C32.6639 72.9236 32.7942 72.9563 32.9102 73.0469C32.6741 73.6401 32.5112 74.2586 32.4219 74.9024C32.3659 76.861 32.2356 78.8141 32.0313 80.7617C29.7348 80.9223 27.4237 81.0199 25.0977 81.0547C25 81.1524 24.9024 81.25 24.8047 81.3477C24.6438 84.3244 24.6764 87.2867 24.9024 90.2344C27.3399 90.4567 29.7813 90.6194 32.2266 90.7227C32.2598 102.84 32.3575 114.949 32.5196 127.051C32.4954 127.169 32.4303 127.234 32.3243 127.246C32.2292 127.056 32.1315 126.861 32.0313 126.66C31.9336 114.681 31.901 102.702 31.9336 90.7227C29.5239 90.7553 27.1151 90.7227 24.7071 90.625C24.5848 90.4785 24.4872 90.3156 24.4141 90.1367C24.2838 87.207 24.2838 84.2774 24.4141 81.3477C24.642 81.1197 24.8698 80.892 25.0977 80.6641C27.3754 80.5664 29.6542 80.5338 31.9336 80.5664C31.7971 77.9932 31.9924 75.4541 32.5196 72.9492Z" fill="#1C1C1C"/>
<path fill-rule="evenodd" clip-rule="evenodd" d="M121.191 93.0664C121.45 104.468 121.45 115.861 121.191 127.246C120.931 115.853 120.931 104.46 121.191 93.0664Z" fill="#1C1C1C"/>
<path fill-rule="evenodd" clip-rule="evenodd" d="M108.691 105.957C108.887 105.957 109.082 105.957 109.277 105.957C110.304 114.336 106.626 118.893 98.2422 119.629C93.0824 119.81 91.0641 117.401 92.1875 112.402C93.0363 110.838 94.3059 109.764 95.9961 109.18C97.0797 108.775 98.1865 108.45 99.3164 108.203C101.735 107.797 104.144 107.342 106.543 106.836C107.318 106.633 108.034 106.34 108.691 105.957Z" fill="white"/>
</g>
<defs>
<clipPath id="clip0_2007_502">
<rect width="200" height="200" fill="white"/>
</clipPath>
</defs>
</svg>
